<?xml version="1.0" encoding="utf-8"?>
<!-- Generator: Adobe Illustrator 24.1.0, SVG Export Plug-In . SVG Version: 6.00 Build 0)  -->
<svg version="1.1" id="Layer_1" xmlns="http://www.w3.org/2000/svg" xmlns:xlink="http://www.w3.org/1999/xlink" x="0px" y="0px"
	 viewBox="0 0 101 18" style="enable-background:new 0 0 101 18;" xml:space="preserve">
<style type="text/css">
	.st0{fill-rule:evenodd;clip-rule:evenodd;fill:#DBE0E7;}
</style>
<g>
	<g>
		<g>
			<g>
				<g>
					<path class="st0" d="M13.999,17.833l-5-3.845l-5,3.845c-0.166,0.13-0.391,0.129-0.557,0c-0.166-0.128-0.236-0.354-0.171-0.56
						l1.92-6.18l-4.995-3.79C0.03,7.176-0.041,6.95,0.022,6.743c0.063-0.208,0.244-0.348,0.45-0.348h6.18L8.549,0.24
						c0.128-0.413,0.774-0.413,0.901,0l1.897,6.155h6.18c0.205,0,0.387,0.14,0.45,0.347c0.063,0.208-0.008,0.434-0.175,0.562
						l-4.995,3.788l1.921,6.18c0.064,0.207-0.005,0.433-0.171,0.561c-0.083,0.065-0.18,0.097-0.279,0.097
						c-0.098,0-0.196-0.032-0.278-0.097L13.999,17.833z"/>
				</g>
			</g>
		</g>
	</g>
	<g>
		<g>
			<g>
				<g>
					<path class="st0" d="M33.999,17.833l-5-3.845l-5,3.845c-0.166,0.13-0.391,0.129-0.557,0c-0.166-0.128-0.236-0.354-0.171-0.56
						l1.92-6.18l-4.995-3.79c-0.166-0.127-0.237-0.353-0.174-0.56c0.063-0.208,0.244-0.348,0.45-0.348h6.18l1.897-6.155
						c0.128-0.413,0.774-0.413,0.901,0l1.897,6.155h6.18c0.205,0,0.387,0.14,0.45,0.347c0.063,0.208-0.008,0.434-0.175,0.562
						l-4.995,3.788l1.921,6.18c0.064,0.207-0.005,0.433-0.171,0.561c-0.083,0.065-0.18,0.097-0.279,0.097
						c-0.098,0-0.196-0.032-0.278-0.097L33.999,17.833z"/>
				</g>
			</g>
		</g>
	</g>
	<g>
		<g>
			<g>
				<g>
					<path class="st0" d="M53.999,17.833l-5-3.845l-5,3.845c-0.166,0.13-0.391,0.129-0.557,0c-0.166-0.128-0.236-0.354-0.171-0.56
						l1.92-6.18l-4.995-3.79c-0.166-0.127-0.237-0.353-0.174-0.56c0.063-0.208,0.244-0.348,0.45-0.348h6.18l1.897-6.155
						c0.128-0.413,0.774-0.413,0.901,0l1.897,6.155h6.18c0.205,0,0.387,0.14,0.45,0.347c0.063,0.208-0.008,0.434-0.175,0.562
						l-4.995,3.788l1.921,6.18c0.064,0.207-0.005,0.433-0.171,0.561c-0.083,0.065-0.18,0.097-0.279,0.097
						c-0.098,0-0.196-0.032-0.278-0.097L53.999,17.833z"/>
				</g>
			</g>
		</g>
	</g>
	<g>
		<g>
			<g>
				<g>
					<path class="st0" d="M74,17.833l-5-3.845l-5,3.845c-0.166,0.13-0.391,0.129-0.557,0c-0.166-0.128-0.236-0.354-0.171-0.56
						l1.92-6.18l-4.995-3.79c-0.166-0.127-0.237-0.353-0.174-0.56c0.063-0.208,0.244-0.348,0.45-0.348h6.18L68.55,0.24
						c0.128-0.413,0.774-0.413,0.901,0l1.897,6.155h6.18c0.205,0,0.387,0.14,0.45,0.347c0.063,0.208-0.008,0.434-0.175,0.562
						l-4.995,3.788l1.921,6.18c0.064,0.207-0.005,0.433-0.171,0.561c-0.083,0.065-0.18,0.097-0.279,0.097
						C74.181,17.93,74.083,17.898,74,17.833L74,17.833z"/>
				</g>
			</g>
		</g>
	</g>
	<g>
		<g>
			<g>
				<g>
					<path class="st0" d="M94,17.833l-5-3.845l-5,3.845c-0.166,0.13-0.391,0.129-0.557,0c-0.166-0.128-0.236-0.354-0.171-0.56
						l1.92-6.18l-4.995-3.79c-0.166-0.127-0.237-0.353-0.174-0.56c0.063-0.208,0.244-0.348,0.45-0.348h6.18L88.55,0.24
						c0.128-0.413,0.774-0.413,0.901,0l1.897,6.155h6.18c0.205,0,0.387,0.14,0.45,0.347c0.063,0.208-0.008,0.434-0.175,0.562
						l-4.995,3.788l1.921,6.18c0.064,0.207-0.005,0.433-0.171,0.561c-0.083,0.065-0.18,0.097-0.279,0.097
						C94.181,17.93,94.083,17.898,94,17.833L94,17.833z"/>
				</g>
			</g>
		</g>
	</g>
</g>
</svg>
