<?xml version="1.0" encoding="utf-8"?>
<!-- Generator: Adobe Illustrator 24.1.0, SVG Export Plug-In . SVG Version: 6.00 Build 0)  -->
<svg version="1.1" id="Layer_1" xmlns="http://www.w3.org/2000/svg" xmlns:xlink="http://www.w3.org/1999/xlink" x="0px" y="0px"
	 viewBox="0 0 101 18" style="enable-background:new 0 0 101 18;" xml:space="preserve">
<style type="text/css">
	.st0{fill-rule:evenodd;clip-rule:evenodd;fill:#FFA700;}
</style>
<g>
	<g>
		<g>
			<g>
				<g>
					<path class="st0" d="M14,17.83l-5-3.85l-5,3.85c-0.17,0.13-0.39,0.13-0.56,0c-0.17-0.13-0.24-0.35-0.17-0.56l1.92-6.18L0.2,7.3
						C0.03,7.18-0.04,6.95,0.02,6.74c0.06-0.21,0.24-0.35,0.45-0.35h6.18l1.9-6.15c0.13-0.41,0.77-0.41,0.9,0l1.9,6.15h6.18
						c0.2,0,0.39,0.14,0.45,0.35c0.06,0.21-0.01,0.43-0.17,0.56l-4.99,3.79l1.92,6.18c0.06,0.21-0.01,0.43-0.17,0.56
						c-0.08,0.07-0.18,0.1-0.28,0.1C14.18,17.93,14.08,17.9,14,17.83L14,17.83z"/>
				</g>
			</g>
		</g>
	</g>
	<g>
		<g>
			<g>
				<g>
					<path class="st0" d="M34,17.83l-5-3.85l-5,3.85c-0.17,0.13-0.39,0.13-0.56,0c-0.17-0.13-0.24-0.35-0.17-0.56l1.92-6.18l-5-3.79
						c-0.17-0.13-0.24-0.35-0.17-0.56c0.06-0.21,0.24-0.35,0.45-0.35h6.18l1.9-6.15c0.13-0.41,0.77-0.41,0.9,0l1.9,6.15h6.18
						c0.2,0,0.39,0.14,0.45,0.35c0.06,0.21-0.01,0.43-0.17,0.56l-4.99,3.79l1.92,6.18c0.06,0.21,0,0.43-0.17,0.56
						c-0.08,0.07-0.18,0.1-0.28,0.1C34.18,17.93,34.08,17.9,34,17.83L34,17.83z"/>
				</g>
			</g>
		</g>
	</g>
	<g>
		<g>
			<g>
				<g>
					<path class="st0" d="M54,17.83l-5-3.85l-5,3.85c-0.17,0.13-0.39,0.13-0.56,0c-0.17-0.13-0.24-0.35-0.17-0.56l1.92-6.18l-5-3.79
						c-0.17-0.13-0.24-0.35-0.17-0.56c0.06-0.21,0.24-0.35,0.45-0.35h6.18l1.9-6.15c0.13-0.41,0.77-0.41,0.9,0l1.9,6.15h6.18
						c0.2,0,0.39,0.14,0.45,0.35c0.06,0.21-0.01,0.43-0.17,0.56l-4.99,3.79l1.92,6.18c0.06,0.21,0,0.43-0.17,0.56
						c-0.08,0.07-0.18,0.1-0.28,0.1C54.18,17.93,54.08,17.9,54,17.83L54,17.83z"/>
				</g>
			</g>
		</g>
	</g>
	<g>
		<g>
			<g>
				<g>
					<path class="st0" d="M74,17.83l-5-3.85l-5,3.85c-0.17,0.13-0.39,0.13-0.56,0c-0.17-0.13-0.24-0.35-0.17-0.56l1.92-6.18l-5-3.79
						c-0.17-0.13-0.24-0.35-0.17-0.56c0.06-0.21,0.24-0.35,0.45-0.35h6.18l1.9-6.15c0.13-0.41,0.77-0.41,0.9,0l1.9,6.15h6.18
						c0.21,0,0.39,0.14,0.45,0.35c0.06,0.21-0.01,0.43-0.17,0.56l-5,3.79l1.92,6.18c0.06,0.21-0.01,0.43-0.17,0.56
						c-0.08,0.07-0.18,0.1-0.28,0.1C74.18,17.93,74.08,17.9,74,17.83L74,17.83z"/>
				</g>
			</g>
		</g>
	</g>
	<g>
		<g>
			<g>
				<g>
					<path class="st0" d="M94,17.83l-5-3.85l-5,3.85c-0.17,0.13-0.39,0.13-0.56,0c-0.17-0.13-0.24-0.35-0.17-0.56l1.92-6.18
						L80.2,7.3c-0.17-0.13-0.24-0.35-0.17-0.56c0.06-0.21,0.24-0.35,0.45-0.35h6.18l1.9-6.15c0.13-0.41,0.77-0.41,0.9,0l1.9,6.15
						h6.18c0.2,0,0.39,0.14,0.45,0.35c0.06,0.21-0.01,0.43-0.17,0.56l-5,3.79l1.92,6.18c0.06,0.21,0,0.43-0.17,0.56
						c-0.08,0.07-0.18,0.1-0.28,0.1C94.18,17.93,94.08,17.9,94,17.83L94,17.83z"/>
				</g>
			</g>
		</g>
	</g>
</g>
</svg>
